<svg xmlns="http://www.w3.org/2000/svg" width="16" height="16" viewBox="0 0 256 257">
  <path fill="#41D1FF" d="M255.2 37.9L134.9 253c-2.5 4.4-8.9 4.5-11.4 0L.9 38c-2.8-4.8 1.4-10.6 6.8-9.7L128 49.8a6.5 6.5 0 0 0 2.3 0l117.9-21.5c5.4-1 9.6 4.8 6.9 9.6Z"/>
  <path fill="#FFA800" d="M185.4 0L96.4 17.5a3.3 3.3 0 0 0-2.6 3l-5.5 92.5a3.3 3.3 0 0 0 4 3.4l24.8-5.7c2.3-.5 4.4 1.5 3.9 3.8l-7.4 36c-.5 2.4 1.8 4.5 4.2 3.8l15.3-4.7c2.4-.7 4.7 1.4 4.1 3.8l-11.7 56.6c-.7 3.5 4 5.5 5.9 2.4l1.3-2 72.5-144.7c1.2-2.4-.9-5.2-3.5-4.7l-25.5 4.9c-2.4.5-4.4-1.8-3.8-4.1l16.6-57.7c.7-2.3-1.4-4.6-3.8-4.1Z"/>
</svg>
